<svg id="visual" viewBox="0 0 900 600" width="900" height="600" xmlns="http://www.w3.org/2000/svg" xmlns:xlink="http://www.w3.org/1999/xlink" version="1.1"><rect x="0" y="0" width="900" height="600" fill="#001220"></rect><defs><linearGradient id="grad1_0" x1="33.3%" y1="0%" x2="100%" y2="100%"><stop offset="20%" stop-color="#fbae3c" stop-opacity="1"></stop><stop offset="80%" stop-color="#fbae3c" stop-opacity="1"></stop></linearGradient></defs><defs><linearGradient id="grad1_1" x1="33.3%" y1="0%" x2="100%" y2="100%"><stop offset="20%" stop-color="#fbae3c" stop-opacity="1"></stop><stop offset="80%" stop-color="#001220" stop-opacity="1"></stop></linearGradient></defs><defs><linearGradient id="grad2_0" x1="0%" y1="0%" x2="66.7%" y2="100%"><stop offset="20%" stop-color="#fbae3c" stop-opacity="1"></stop><stop offset="80%" stop-color="#fbae3c" stop-opacity="1"></stop></linearGradient></defs><defs><linearGradient id="grad2_1" x1="0%" y1="0%" x2="66.7%" y2="100%"><stop offset="20%" stop-color="#001220" stop-opacity="1"></stop><stop offset="80%" stop-color="#fbae3c" stop-opacity="1"></stop></linearGradient></defs><g transform="translate(900, 0)"><path d="M0 405.6C-75.7 397.8 -151.5 389.9 -202.8 351.3C-254.2 312.6 -281.2 243.2 -310.9 179.5C-340.6 115.8 -373.1 57.9 -405.6 0L0 0Z" fill="#96446e"></path><path d="M0 202.8C-37.9 198.9 -75.7 195 -101.4 175.6C-127.1 156.3 -140.6 121.6 -155.5 89.8C-170.3 57.9 -186.6 29 -202.8 0L0 0Z" fill="#fbae3c"></path></g><g transform="translate(0, 600)"><path d="M0 -405.6C74.2 -396.9 148.5 -388.2 202.8 -351.3C257.2 -314.4 291.7 -249.2 322.2 -186C352.7 -122.8 379.1 -61.4 405.6 0L0 0Z" fill="#96446e"></path><path d="M0 -202.8C37.1 -198.5 74.2 -194.1 101.4 -175.6C128.6 -157.2 145.8 -124.6 161.1 -93C176.3 -61.4 189.6 -30.7 202.8 0L0 0Z" fill="#fbae3c"></path></g></svg>